<?xml version="1.0" encoding="utf-8" standalone="no"?>
<!DOCTYPE svg PUBLIC "-//W3C//DTD SVG 1.1//EN"
  "http://www.w3.org/Graphics/SVG/1.1/DTD/svg11.dtd">
<svg xmlns:xlink="http://www.w3.org/1999/xlink" width="792pt" height="432pt" viewBox="0 0 792 432" xmlns="http://www.w3.org/2000/svg" version="1.1">
 <metadata>
  <rdf:RDF xmlns:dc="http://purl.org/dc/elements/1.1/" xmlns:cc="http://creativecommons.org/ns#" xmlns:rdf="http://www.w3.org/1999/02/22-rdf-syntax-ns#">
   <cc:Work>
    <dc:type rdf:resource="http://purl.org/dc/dcmitype/StillImage"/>
    <dc:date>2026-01-15T22:43:58.374510</dc:date>
    <dc:format>image/svg+xml</dc:format>
    <dc:creator>
     <cc:Agent>
      <dc:title>Matplotlib v3.10.7, https://matplotlib.org/</dc:title>
     </cc:Agent>
    </dc:creator>
   </cc:Work>
  </rdf:RDF>
 </metadata>
 <defs>
  <style type="text/css">*{stroke-linejoin: round; stroke-linecap: butt}</style>
 </defs>
 <g id="figure_1">
  <g id="patch_1">
   <path d="M 0 432 
L 792 432 
L 792 0 
L 0 0 
z
" style="fill: #ffffff"/>
  </g>
  <g id="axes_1">
   <g id="patch_2">
    <path d="M 47.47399 393.240072 
L 788.99976 393.240072 
L 788.99976 18.118365 
L 47.47399 18.118365 
z
" style="fill: #ffffff"/>
   </g>
   <g id="matplotlib.axis_1">
    <g id="xtick_1">
     <g id="line2d_1">
      <path d="M 77.792198 393.240072 
L 77.792198 18.118365 
" clip-path="url(#pfffe3242db)" style="fill: none; stroke: #cccccc; stroke-linecap: round"/>
     </g>
     <g id="text_1">
      <!-- 0 -->
      <g style="fill: #262626" transform="translate(74.292823 411.098354) scale(0.11 -0.11)">
       <defs>
        <path id="DejaVuSans-30" d="M 2034 4250 
Q 1547 4250 1301 3770 
Q 1056 3291 1056 2328 
Q 1056 1369 1301 889 
Q 1547 409 2034 409 
Q 2525 409 2770 889 
Q 3016 1369 3016 2328 
Q 3016 3291 2770 3770 
Q 2525 4250 2034 4250 
z
M 2034 4750 
Q 2819 4750 3233 4129 
Q 3647 3509 3647 2328 
Q 3647 1150 3233 529 
Q 2819 -91 2034 -91 
Q 1250 -91 836 529 
Q 422 1150 422 2328 
Q 422 3509 836 4129 
Q 1250 4750 2034 4750 
z
" transform="scale(0.015625)"/>
       </defs>
       <use xlink:href="#DejaVuSans-30"/>
      </g>
     </g>
    </g>
    <g id="xtick_2">
     <g id="line2d_2">
      <path d="M 162.479928 393.240072 
L 162.479928 18.118365 
" clip-path="url(#pfffe3242db)" style="fill: none; stroke: #cccccc; stroke-linecap: round"/>
     </g>
     <g id="text_2">
      <!-- 25 -->
      <g style="fill: #262626" transform="translate(155.481178 411.098354) scale(0.11 -0.11)">
       <defs>
        <path id="DejaVuSans-32" d="M 1228 531 
L 3431 531 
L 3431 0 
L 469 0 
L 469 531 
Q 828 903 1448 1529 
Q 2069 2156 2228 2338 
Q 2531 2678 2651 2914 
Q 2772 3150 2772 3378 
Q 2772 3750 2511 3984 
Q 2250 4219 1831 4219 
Q 1534 4219 1204 4116 
Q 875 4013 500 3803 
L 500 4441 
Q 881 4594 1212 4672 
Q 1544 4750 1819 4750 
Q 2544 4750 2975 4387 
Q 3406 4025 3406 3419 
Q 3406 3131 3298 2873 
Q 3191 2616 2906 2266 
Q 2828 2175 2409 1742 
Q 1991 1309 1228 531 
z
" transform="scale(0.015625)"/>
        <path id="DejaVuSans-35" d="M 691 4666 
L 3169 4666 
L 3169 4134 
L 1269 4134 
L 1269 2991 
Q 1406 3038 1543 3061 
Q 1681 3084 1819 3084 
Q 2600 3084 3056 2656 
Q 3513 2228 3513 1497 
Q 3513 744 3044 326 
Q 2575 -91 1722 -91 
Q 1428 -91 1123 -41 
Q 819 9 494 109 
L 494 744 
Q 775 591 1075 516 
Q 1375 441 1709 441 
Q 2250 441 2565 725 
Q 2881 1009 2881 1497 
Q 2881 1984 2565 2268 
Q 2250 2553 1709 2553 
Q 1456 2553 1204 2497 
Q 953 2441 691 2322 
L 691 4666 
z
" transform="scale(0.015625)"/>
       </defs>
       <use xlink:href="#DejaVuSans-32"/>
       <use xlink:href="#DejaVuSans-35" transform="translate(63.623047 0)"/>
      </g>
     </g>
    </g>
    <g id="xtick_3">
     <g id="line2d_3">
      <path d="M 247.167659 393.240072 
L 247.167659 18.118365 
" clip-path="url(#pfffe3242db)" style="fill: none; stroke: #cccccc; stroke-linecap: round"/>
     </g>
     <g id="text_3">
      <!-- 50 -->
      <g style="fill: #262626" transform="translate(240.168909 411.098354) scale(0.11 -0.11)">
       <use xlink:href="#DejaVuSans-35"/>
       <use xlink:href="#DejaVuSans-30" transform="translate(63.623047 0)"/>
      </g>
     </g>
    </g>
    <g id="xtick_4">
     <g id="line2d_4">
      <path d="M 331.85539 393.240072 
L 331.85539 18.118365 
" clip-path="url(#pfffe3242db)" style="fill: none; stroke: #cccccc; stroke-linecap: round"/>
     </g>
     <g id="text_4">
      <!-- 75 -->
      <g style="fill: #262626" transform="translate(324.85664 411.098354) scale(0.11 -0.11)">
       <defs>
        <path id="DejaVuSans-37" d="M 525 4666 
L 3525 4666 
L 3525 4397 
L 1831 0 
L 1172 0 
L 2766 4134 
L 525 4134 
L 525 4666 
z
" transform="scale(0.015625)"/>
       </defs>
       <use xlink:href="#DejaVuSans-37"/>
       <use xlink:href="#DejaVuSans-35" transform="translate(63.623047 0)"/>
      </g>
     </g>
    </g>
    <g id="xtick_5">
     <g id="line2d_5">
      <path d="M 416.54312 393.240072 
L 416.54312 18.118365 
" clip-path="url(#pfffe3242db)" style="fill: none; stroke: #cccccc; stroke-linecap: round"/>
     </g>
     <g id="text_5">
      <!-- 100 -->
      <g style="fill: #262626" transform="translate(406.044995 411.098354) scale(0.11 -0.11)">
       <defs>
        <path id="DejaVuSans-31" d="M 794 531 
L 1825 531 
L 1825 4091 
L 703 3866 
L 703 4441 
L 1819 4666 
L 2450 4666 
L 2450 531 
L 3481 531 
L 3481 0 
L 794 0 
L 794 531 
z
" transform="scale(0.015625)"/>
       </defs>
       <use xlink:href="#DejaVuSans-31"/>
       <use xlink:href="#DejaVuSans-30" transform="translate(63.623047 0)"/>
       <use xlink:href="#DejaVuSans-30" transform="translate(127.246094 0)"/>
      </g>
     </g>
    </g>
    <g id="xtick_6">
     <g id="line2d_6">
      <path d="M 501.230851 393.240072 
L 501.230851 18.118365 
" clip-path="url(#pfffe3242db)" style="fill: none; stroke: #cccccc; stroke-linecap: round"/>
     </g>
     <g id="text_6">
      <!-- 125 -->
      <g style="fill: #262626" transform="translate(490.732726 411.098354) scale(0.11 -0.11)">
       <use xlink:href="#DejaVuSans-31"/>
       <use xlink:href="#DejaVuSans-32" transform="translate(63.623047 0)"/>
       <use xlink:href="#DejaVuSans-35" transform="translate(127.246094 0)"/>
      </g>
     </g>
    </g>
    <g id="xtick_7">
     <g id="line2d_7">
      <path d="M 585.918582 393.240072 
L 585.918582 18.118365 
" clip-path="url(#pfffe3242db)" style="fill: none; stroke: #cccccc; stroke-linecap: round"/>
     </g>
     <g id="text_7">
      <!-- 150 -->
      <g style="fill: #262626" transform="translate(575.420457 411.098354) scale(0.11 -0.11)">
       <use xlink:href="#DejaVuSans-31"/>
       <use xlink:href="#DejaVuSans-35" transform="translate(63.623047 0)"/>
       <use xlink:href="#DejaVuSans-30" transform="translate(127.246094 0)"/>
      </g>
     </g>
    </g>
    <g id="xtick_8">
     <g id="line2d_8">
      <path d="M 670.606312 393.240072 
L 670.606312 18.118365 
" clip-path="url(#pfffe3242db)" style="fill: none; stroke: #cccccc; stroke-linecap: round"/>
     </g>
     <g id="text_8">
      <!-- 175 -->
      <g style="fill: #262626" transform="translate(660.108187 411.098354) scale(0.11 -0.11)">
       <use xlink:href="#DejaVuSans-31"/>
       <use xlink:href="#DejaVuSans-37" transform="translate(63.623047 0)"/>
       <use xlink:href="#DejaVuSans-35" transform="translate(127.246094 0)"/>
      </g>
     </g>
    </g>
    <g id="xtick_9">
     <g id="line2d_9">
      <path d="M 755.294043 393.240072 
L 755.294043 18.118365 
" clip-path="url(#pfffe3242db)" style="fill: none; stroke: #cccccc; stroke-linecap: round"/>
     </g>
     <g id="text_9">
      <!-- 200 -->
      <g style="fill: #262626" transform="translate(744.795918 411.098354) scale(0.11 -0.11)">
       <use xlink:href="#DejaVuSans-32"/>
       <use xlink:href="#DejaVuSans-30" transform="translate(63.623047 0)"/>
       <use xlink:href="#DejaVuSans-30" transform="translate(127.246094 0)"/>
      </g>
     </g>
    </g>
    <g id="text_10">
     <!-- k-mer multiplicity -->
     <g style="fill: #262626" transform="translate(365.343125 426.504135) scale(0.12 -0.12)">
      <defs>
       <path id="DejaVuSans-6b" d="M 581 4863 
L 1159 4863 
L 1159 1991 
L 2875 3500 
L 3609 3500 
L 1753 1863 
L 3688 0 
L 2938 0 
L 1159 1709 
L 1159 0 
L 581 0 
L 581 4863 
z
" transform="scale(0.015625)"/>
       <path id="DejaVuSans-2d" d="M 313 2009 
L 1997 2009 
L 1997 1497 
L 313 1497 
L 313 2009 
z
" transform="scale(0.015625)"/>
       <path id="DejaVuSans-6d" d="M 3328 2828 
Q 3544 3216 3844 3400 
Q 4144 3584 4550 3584 
Q 5097 3584 5394 3201 
Q 5691 2819 5691 2113 
L 5691 0 
L 5113 0 
L 5113 2094 
Q 5113 2597 4934 2840 
Q 4756 3084 4391 3084 
Q 3944 3084 3684 2787 
Q 3425 2491 3425 1978 
L 3425 0 
L 2847 0 
L 2847 2094 
Q 2847 2600 2669 2842 
Q 2491 3084 2119 3084 
Q 1678 3084 1418 2786 
Q 1159 2488 1159 1978 
L 1159 0 
L 581 0 
L 581 3500 
L 1159 3500 
L 1159 2956 
Q 1356 3278 1631 3431 
Q 1906 3584 2284 3584 
Q 2666 3584 2933 3390 
Q 3200 3197 3328 2828 
z
" transform="scale(0.015625)"/>
       <path id="DejaVuSans-65" d="M 3597 1894 
L 3597 1613 
L 953 1613 
Q 991 1019 1311 708 
Q 1631 397 2203 397 
Q 2534 397 2845 478 
Q 3156 559 3463 722 
L 3463 178 
Q 3153 47 2828 -22 
Q 2503 -91 2169 -91 
Q 1331 -91 842 396 
Q 353 884 353 1716 
Q 353 2575 817 3079 
Q 1281 3584 2069 3584 
Q 2775 3584 3186 3129 
Q 3597 2675 3597 1894 
z
M 3022 2063 
Q 3016 2534 2758 2815 
Q 2500 3097 2075 3097 
Q 1594 3097 1305 2825 
Q 1016 2553 972 2059 
L 3022 2063 
z
" transform="scale(0.015625)"/>
       <path id="DejaVuSans-72" d="M 2631 2963 
Q 2534 3019 2420 3045 
Q 2306 3072 2169 3072 
Q 1681 3072 1420 2755 
Q 1159 2438 1159 1844 
L 1159 0 
L 581 0 
L 581 3500 
L 1159 3500 
L 1159 2956 
Q 1341 3275 1631 3429 
Q 1922 3584 2338 3584 
Q 2397 3584 2469 3576 
Q 2541 3569 2628 3553 
L 2631 2963 
z
" transform="scale(0.015625)"/>
       <path id="DejaVuSans-20" transform="scale(0.015625)"/>
       <path id="DejaVuSans-75" d="M 544 1381 
L 544 3500 
L 1119 3500 
L 1119 1403 
Q 1119 906 1312 657 
Q 1506 409 1894 409 
Q 2359 409 2629 706 
Q 2900 1003 2900 1516 
L 2900 3500 
L 3475 3500 
L 3475 0 
L 2900 0 
L 2900 538 
Q 2691 219 2414 64 
Q 2138 -91 1772 -91 
Q 1169 -91 856 284 
Q 544 659 544 1381 
z
M 1991 3584 
L 1991 3584 
z
" transform="scale(0.015625)"/>
       <path id="DejaVuSans-6c" d="M 603 4863 
L 1178 4863 
L 1178 0 
L 603 0 
L 603 4863 
z
" transform="scale(0.015625)"/>
       <path id="DejaVuSans-74" d="M 1172 4494 
L 1172 3500 
L 2356 3500 
L 2356 3053 
L 1172 3053 
L 1172 1153 
Q 1172 725 1289 603 
Q 1406 481 1766 481 
L 2356 481 
L 2356 0 
L 1766 0 
Q 1100 0 847 248 
Q 594 497 594 1153 
L 594 3053 
L 172 3053 
L 172 3500 
L 594 3500 
L 594 4494 
L 1172 4494 
z
" transform="scale(0.015625)"/>
       <path id="DejaVuSans-69" d="M 603 3500 
L 1178 3500 
L 1178 0 
L 603 0 
L 603 3500 
z
M 603 4863 
L 1178 4863 
L 1178 4134 
L 603 4134 
L 603 4863 
z
" transform="scale(0.015625)"/>
       <path id="DejaVuSans-70" d="M 1159 525 
L 1159 -1331 
L 581 -1331 
L 581 3500 
L 1159 3500 
L 1159 2969 
Q 1341 3281 1617 3432 
Q 1894 3584 2278 3584 
Q 2916 3584 3314 3078 
Q 3713 2572 3713 1747 
Q 3713 922 3314 415 
Q 2916 -91 2278 -91 
Q 1894 -91 1617 61 
Q 1341 213 1159 525 
z
M 3116 1747 
Q 3116 2381 2855 2742 
Q 2594 3103 2138 3103 
Q 1681 3103 1420 2742 
Q 1159 2381 1159 1747 
Q 1159 1113 1420 752 
Q 1681 391 2138 391 
Q 2594 391 2855 752 
Q 3116 1113 3116 1747 
z
" transform="scale(0.015625)"/>
       <path id="DejaVuSans-63" d="M 3122 3366 
L 3122 2828 
Q 2878 2963 2633 3030 
Q 2388 3097 2138 3097 
Q 1578 3097 1268 2742 
Q 959 2388 959 1747 
Q 959 1106 1268 751 
Q 1578 397 2138 397 
Q 2388 397 2633 464 
Q 2878 531 3122 666 
L 3122 134 
Q 2881 22 2623 -34 
Q 2366 -91 2075 -91 
Q 1284 -91 818 406 
Q 353 903 353 1747 
Q 353 2603 823 3093 
Q 1294 3584 2113 3584 
Q 2378 3584 2631 3529 
Q 2884 3475 3122 3366 
z
" transform="scale(0.015625)"/>
       <path id="DejaVuSans-79" d="M 2059 -325 
Q 1816 -950 1584 -1140 
Q 1353 -1331 966 -1331 
L 506 -1331 
L 506 -850 
L 844 -850 
Q 1081 -850 1212 -737 
Q 1344 -625 1503 -206 
L 1606 56 
L 191 3500 
L 800 3500 
L 1894 763 
L 2988 3500 
L 3597 3500 
L 2059 -325 
z
" transform="scale(0.015625)"/>
      </defs>
      <use xlink:href="#DejaVuSans-6b"/>
      <use xlink:href="#DejaVuSans-2d" transform="translate(57.910156 0)"/>
      <use xlink:href="#DejaVuSans-6d" transform="translate(93.994141 0)"/>
      <use xlink:href="#DejaVuSans-65" transform="translate(191.40625 0)"/>
      <use xlink:href="#DejaVuSans-72" transform="translate(252.929688 0)"/>
      <use xlink:href="#DejaVuSans-20" transform="translate(294.042969 0)"/>
      <use xlink:href="#DejaVuSans-6d" transform="translate(325.830078 0)"/>
      <use xlink:href="#DejaVuSans-75" transform="translate(423.242188 0)"/>
      <use xlink:href="#DejaVuSans-6c" transform="translate(486.621094 0)"/>
      <use xlink:href="#DejaVuSans-74" transform="translate(514.404297 0)"/>
      <use xlink:href="#DejaVuSans-69" transform="translate(553.613281 0)"/>
      <use xlink:href="#DejaVuSans-70" transform="translate(581.396484 0)"/>
      <use xlink:href="#DejaVuSans-6c" transform="translate(644.873047 0)"/>
      <use xlink:href="#DejaVuSans-69" transform="translate(672.65625 0)"/>
      <use xlink:href="#DejaVuSans-63" transform="translate(700.439453 0)"/>
      <use xlink:href="#DejaVuSans-69" transform="translate(755.419922 0)"/>
      <use xlink:href="#DejaVuSans-74" transform="translate(783.203125 0)"/>
      <use xlink:href="#DejaVuSans-79" transform="translate(822.412109 0)"/>
     </g>
    </g>
   </g>
   <g id="matplotlib.axis_2">
    <g id="ytick_1">
     <g id="line2d_10">
      <path d="M 47.47399 338.217959 
L 788.99976 338.217959 
" clip-path="url(#pfffe3242db)" style="fill: none; stroke: #cccccc; stroke-linecap: round"/>
     </g>
     <g id="text_11">
      <!-- $\mathdefault{10^{3}}$ -->
      <g style="fill: #262626" transform="translate(18.61399 342.397099) scale(0.11 -0.11)">
       <defs>
        <path id="DejaVuSans-33" d="M 2597 2516 
Q 3050 2419 3304 2112 
Q 3559 1806 3559 1356 
Q 3559 666 3084 287 
Q 2609 -91 1734 -91 
Q 1441 -91 1130 -33 
Q 819 25 488 141 
L 488 750 
Q 750 597 1062 519 
Q 1375 441 1716 441 
Q 2309 441 2620 675 
Q 2931 909 2931 1356 
Q 2931 1769 2642 2001 
Q 2353 2234 1838 2234 
L 1294 2234 
L 1294 2753 
L 1863 2753 
Q 2328 2753 2575 2939 
Q 2822 3125 2822 3475 
Q 2822 3834 2567 4026 
Q 2313 4219 1838 4219 
Q 1578 4219 1281 4162 
Q 984 4106 628 3988 
L 628 4550 
Q 988 4650 1302 4700 
Q 1616 4750 1894 4750 
Q 2613 4750 3031 4423 
Q 3450 4097 3450 3541 
Q 3450 3153 3228 2886 
Q 3006 2619 2597 2516 
z
" transform="scale(0.015625)"/>
       </defs>
       <use xlink:href="#DejaVuSans-31" transform="translate(0 0.765625)"/>
       <use xlink:href="#DejaVuSans-30" transform="translate(63.623047 0.765625)"/>
       <use xlink:href="#DejaVuSans-33" transform="translate(128.203125 39.046875) scale(0.7)"/>
      </g>
     </g>
    </g>
    <g id="ytick_2">
     <g id="line2d_11">
      <path d="M 47.47399 281.165384 
L 788.99976 281.165384 
" clip-path="url(#pfffe3242db)" style="fill: none; stroke: #cccccc; stroke-linecap: round"/>
     </g>
     <g id="text_12">
      <!-- $\mathdefault{10^{4}}$ -->
      <g style="fill: #262626" transform="translate(18.61399 285.344525) scale(0.11 -0.11)">
       <defs>
        <path id="DejaVuSans-34" d="M 2419 4116 
L 825 1625 
L 2419 1625 
L 2419 4116 
z
M 2253 4666 
L 3047 4666 
L 3047 1625 
L 3713 1625 
L 3713 1100 
L 3047 1100 
L 3047 0 
L 2419 0 
L 2419 1100 
L 313 1100 
L 313 1709 
L 2253 4666 
z
" transform="scale(0.015625)"/>
       </defs>
       <use xlink:href="#DejaVuSans-31" transform="translate(0 0.684375)"/>
       <use xlink:href="#DejaVuSans-30" transform="translate(63.623047 0.684375)"/>
       <use xlink:href="#DejaVuSans-34" transform="translate(128.203125 38.965625) scale(0.7)"/>
      </g>
     </g>
    </g>
    <g id="ytick_3">
     <g id="line2d_12">
      <path d="M 47.47399 224.112809 
L 788.99976 224.112809 
" clip-path="url(#pfffe3242db)" style="fill: none; stroke: #cccccc; stroke-linecap: round"/>
     </g>
     <g id="text_13">
      <!-- $\mathdefault{10^{5}}$ -->
      <g style="fill: #262626" transform="translate(18.61399 228.29195) scale(0.11 -0.11)">
       <use xlink:href="#DejaVuSans-31" transform="translate(0 0.684375)"/>
       <use xlink:href="#DejaVuSans-30" transform="translate(63.623047 0.684375)"/>
       <use xlink:href="#DejaVuSans-35" transform="translate(128.203125 38.965625) scale(0.7)"/>
      </g>
     </g>
    </g>
    <g id="ytick_4">
     <g id="line2d_13">
      <path d="M 47.47399 167.060235 
L 788.99976 167.060235 
" clip-path="url(#pfffe3242db)" style="fill: none; stroke: #cccccc; stroke-linecap: round"/>
     </g>
     <g id="text_14">
      <!-- $\mathdefault{10^{6}}$ -->
      <g style="fill: #262626" transform="translate(18.61399 171.239375) scale(0.11 -0.11)">
       <defs>
        <path id="DejaVuSans-36" d="M 2113 2584 
Q 1688 2584 1439 2293 
Q 1191 2003 1191 1497 
Q 1191 994 1439 701 
Q 1688 409 2113 409 
Q 2538 409 2786 701 
Q 3034 994 3034 1497 
Q 3034 2003 2786 2293 
Q 2538 2584 2113 2584 
z
M 3366 4563 
L 3366 3988 
Q 3128 4100 2886 4159 
Q 2644 4219 2406 4219 
Q 1781 4219 1451 3797 
Q 1122 3375 1075 2522 
Q 1259 2794 1537 2939 
Q 1816 3084 2150 3084 
Q 2853 3084 3261 2657 
Q 3669 2231 3669 1497 
Q 3669 778 3244 343 
Q 2819 -91 2113 -91 
Q 1303 -91 875 529 
Q 447 1150 447 2328 
Q 447 3434 972 4092 
Q 1497 4750 2381 4750 
Q 2619 4750 2861 4703 
Q 3103 4656 3366 4563 
z
" transform="scale(0.015625)"/>
       </defs>
       <use xlink:href="#DejaVuSans-31" transform="translate(0 0.765625)"/>
       <use xlink:href="#DejaVuSans-30" transform="translate(63.623047 0.765625)"/>
       <use xlink:href="#DejaVuSans-36" transform="translate(128.203125 39.046875) scale(0.7)"/>
      </g>
     </g>
    </g>
    <g id="ytick_5">
     <g id="line2d_14">
      <path d="M 47.47399 110.00766 
L 788.99976 110.00766 
" clip-path="url(#pfffe3242db)" style="fill: none; stroke: #cccccc; stroke-linecap: round"/>
     </g>
     <g id="text_15">
      <!-- $\mathdefault{10^{7}}$ -->
      <g style="fill: #262626" transform="translate(18.61399 114.186801) scale(0.11 -0.11)">
       <use xlink:href="#DejaVuSans-31" transform="translate(0 0.684375)"/>
       <use xlink:href="#DejaVuSans-30" transform="translate(63.623047 0.684375)"/>
       <use xlink:href="#DejaVuSans-37" transform="translate(128.203125 38.965625) scale(0.7)"/>
      </g>
     </g>
    </g>
    <g id="ytick_6">
     <g id="line2d_15">
      <path d="M 47.47399 52.955086 
L 788.99976 52.955086 
" clip-path="url(#pfffe3242db)" style="fill: none; stroke: #cccccc; stroke-linecap: round"/>
     </g>
     <g id="text_16">
      <!-- $\mathdefault{10^{8}}$ -->
      <g style="fill: #262626" transform="translate(18.61399 57.134226) scale(0.11 -0.11)">
       <defs>
        <path id="DejaVuSans-38" d="M 2034 2216 
Q 1584 2216 1326 1975 
Q 1069 1734 1069 1313 
Q 1069 891 1326 650 
Q 1584 409 2034 409 
Q 2484 409 2743 651 
Q 3003 894 3003 1313 
Q 3003 1734 2745 1975 
Q 2488 2216 2034 2216 
z
M 1403 2484 
Q 997 2584 770 2862 
Q 544 3141 544 3541 
Q 544 4100 942 4425 
Q 1341 4750 2034 4750 
Q 2731 4750 3128 4425 
Q 3525 4100 3525 3541 
Q 3525 3141 3298 2862 
Q 3072 2584 2669 2484 
Q 3125 2378 3379 2068 
Q 3634 1759 3634 1313 
Q 3634 634 3220 271 
Q 2806 -91 2034 -91 
Q 1263 -91 848 271 
Q 434 634 434 1313 
Q 434 1759 690 2068 
Q 947 2378 1403 2484 
z
M 1172 3481 
Q 1172 3119 1398 2916 
Q 1625 2713 2034 2713 
Q 2441 2713 2670 2916 
Q 2900 3119 2900 3481 
Q 2900 3844 2670 4047 
Q 2441 4250 2034 4250 
Q 1625 4250 1398 4047 
Q 1172 3844 1172 3481 
z
" transform="scale(0.015625)"/>
       </defs>
       <use xlink:href="#DejaVuSans-31" transform="translate(0 0.765625)"/>
       <use xlink:href="#DejaVuSans-30" transform="translate(63.623047 0.765625)"/>
       <use xlink:href="#DejaVuSans-38" transform="translate(128.203125 39.046875) scale(0.7)"/>
      </g>
     </g>
    </g>
    <g id="ytick_7"/>
    <g id="ytick_8"/>
    <g id="ytick_9"/>
    <g id="ytick_10"/>
    <g id="ytick_11"/>
    <g id="ytick_12"/>
    <g id="ytick_13"/>
    <g id="ytick_14"/>
    <g id="ytick_15"/>
    <g id="ytick_16"/>
    <g id="ytick_17"/>
    <g id="ytick_18"/>
    <g id="ytick_19"/>
    <g id="ytick_20"/>
    <g id="ytick_21"/>
    <g id="ytick_22"/>
    <g id="ytick_23"/>
    <g id="ytick_24"/>
    <g id="ytick_25"/>
    <g id="ytick_26"/>
    <g id="ytick_27"/>
    <g id="ytick_28"/>
    <g id="ytick_29"/>
    <g id="ytick_30"/>
    <g id="ytick_31"/>
    <g id="ytick_32"/>
    <g id="ytick_33"/>
    <g id="ytick_34"/>
    <g id="ytick_35"/>
    <g id="ytick_36"/>
    <g id="ytick_37"/>
    <g id="ytick_38"/>
    <g id="ytick_39"/>
    <g id="ytick_40"/>
    <g id="ytick_41"/>
    <g id="ytick_42"/>
    <g id="ytick_43"/>
    <g id="ytick_44"/>
    <g id="ytick_45"/>
    <g id="ytick_46"/>
    <g id="ytick_47"/>
    <g id="ytick_48"/>
    <g id="ytick_49"/>
    <g id="ytick_50"/>
    <g id="ytick_51"/>
    <g id="ytick_52"/>
    <g id="ytick_53"/>
    <g id="ytick_54"/>
    <g id="ytick_55"/>
    <g id="ytick_56"/>
    <g id="ytick_57"/>
    <g id="text_17">
     <!-- Number of distinct k-mers -->
     <g style="fill: #262626" transform="translate(12.118365 284.128281) rotate(-90) scale(0.12 -0.12)">
      <defs>
       <path id="DejaVuSans-4e" d="M 628 4666 
L 1478 4666 
L 3547 763 
L 3547 4666 
L 4159 4666 
L 4159 0 
L 3309 0 
L 1241 3903 
L 1241 0 
L 628 0 
L 628 4666 
z
" transform="scale(0.015625)"/>
       <path id="DejaVuSans-62" d="M 3116 1747 
Q 3116 2381 2855 2742 
Q 2594 3103 2138 3103 
Q 1681 3103 1420 2742 
Q 1159 2381 1159 1747 
Q 1159 1113 1420 752 
Q 1681 391 2138 391 
Q 2594 391 2855 752 
Q 3116 1113 3116 1747 
z
M 1159 2969 
Q 1341 3281 1617 3432 
Q 1894 3584 2278 3584 
Q 2916 3584 3314 3078 
Q 3713 2572 3713 1747 
Q 3713 922 3314 415 
Q 2916 -91 2278 -91 
Q 1894 -91 1617 61 
Q 1341 213 1159 525 
L 1159 0 
L 581 0 
L 581 4863 
L 1159 4863 
L 1159 2969 
z
" transform="scale(0.015625)"/>
       <path id="DejaVuSans-6f" d="M 1959 3097 
Q 1497 3097 1228 2736 
Q 959 2375 959 1747 
Q 959 1119 1226 758 
Q 1494 397 1959 397 
Q 2419 397 2687 759 
Q 2956 1122 2956 1747 
Q 2956 2369 2687 2733 
Q 2419 3097 1959 3097 
z
M 1959 3584 
Q 2709 3584 3137 3096 
Q 3566 2609 3566 1747 
Q 3566 888 3137 398 
Q 2709 -91 1959 -91 
Q 1206 -91 779 398 
Q 353 888 353 1747 
Q 353 2609 779 3096 
Q 1206 3584 1959 3584 
z
" transform="scale(0.015625)"/>
       <path id="DejaVuSans-66" d="M 2375 4863 
L 2375 4384 
L 1825 4384 
Q 1516 4384 1395 4259 
Q 1275 4134 1275 3809 
L 1275 3500 
L 2222 3500 
L 2222 3053 
L 1275 3053 
L 1275 0 
L 697 0 
L 697 3053 
L 147 3053 
L 147 3500 
L 697 3500 
L 697 3744 
Q 697 4328 969 4595 
Q 1241 4863 1831 4863 
L 2375 4863 
z
" transform="scale(0.015625)"/>
       <path id="DejaVuSans-64" d="M 2906 2969 
L 2906 4863 
L 3481 4863 
L 3481 0 
L 2906 0 
L 2906 525 
Q 2725 213 2448 61 
Q 2172 -91 1784 -91 
Q 1150 -91 751 415 
Q 353 922 353 1747 
Q 353 2572 751 3078 
Q 1150 3584 1784 3584 
Q 2172 3584 2448 3432 
Q 2725 3281 2906 2969 
z
M 947 1747 
Q 947 1113 1208 752 
Q 1469 391 1925 391 
Q 2381 391 2643 752 
Q 2906 1113 2906 1747 
Q 2906 2381 2643 2742 
Q 2381 3103 1925 3103 
Q 1469 3103 1208 2742 
Q 947 2381 947 1747 
z
" transform="scale(0.015625)"/>
       <path id="DejaVuSans-73" d="M 2834 3397 
L 2834 2853 
Q 2591 2978 2328 3040 
Q 2066 3103 1784 3103 
Q 1356 3103 1142 2972 
Q 928 2841 928 2578 
Q 928 2378 1081 2264 
Q 1234 2150 1697 2047 
L 1894 2003 
Q 2506 1872 2764 1633 
Q 3022 1394 3022 966 
Q 3022 478 2636 193 
Q 2250 -91 1575 -91 
Q 1294 -91 989 -36 
Q 684 19 347 128 
L 347 722 
Q 666 556 975 473 
Q 1284 391 1588 391 
Q 1994 391 2212 530 
Q 2431 669 2431 922 
Q 2431 1156 2273 1281 
Q 2116 1406 1581 1522 
L 1381 1569 
Q 847 1681 609 1914 
Q 372 2147 372 2553 
Q 372 3047 722 3315 
Q 1072 3584 1716 3584 
Q 2034 3584 2315 3537 
Q 2597 3491 2834 3397 
z
" transform="scale(0.015625)"/>
       <path id="DejaVuSans-6e" d="M 3513 2113 
L 3513 0 
L 2938 0 
L 2938 2094 
Q 2938 2591 2744 2837 
Q 2550 3084 2163 3084 
Q 1697 3084 1428 2787 
Q 1159 2491 1159 1978 
L 1159 0 
L 581 0 
L 581 3500 
L 1159 3500 
L 1159 2956 
Q 1366 3272 1645 3428 
Q 1925 3584 2291 3584 
Q 2894 3584 3203 3211 
Q 3513 2838 3513 2113 
z
" transform="scale(0.015625)"/>
      </defs>
      <use xlink:href="#DejaVuSans-4e"/>
      <use xlink:href="#DejaVuSans-75" transform="translate(74.804688 0)"/>
      <use xlink:href="#DejaVuSans-6d" transform="translate(138.183594 0)"/>
      <use xlink:href="#DejaVuSans-62" transform="translate(235.595703 0)"/>
      <use xlink:href="#DejaVuSans-65" transform="translate(299.072266 0)"/>
      <use xlink:href="#DejaVuSans-72" transform="translate(360.595703 0)"/>
      <use xlink:href="#DejaVuSans-20" transform="translate(401.708984 0)"/>
      <use xlink:href="#DejaVuSans-6f" transform="translate(433.496094 0)"/>
      <use xlink:href="#DejaVuSans-66" transform="translate(494.677734 0)"/>
      <use xlink:href="#DejaVuSans-20" transform="translate(529.882812 0)"/>
      <use xlink:href="#DejaVuSans-64" transform="translate(561.669922 0)"/>
      <use xlink:href="#DejaVuSans-69" transform="translate(625.146484 0)"/>
      <use xlink:href="#DejaVuSans-73" transform="translate(652.929688 0)"/>
      <use xlink:href="#DejaVuSans-74" transform="translate(705.029297 0)"/>
      <use xlink:href="#DejaVuSans-69" transform="translate(744.238281 0)"/>
      <use xlink:href="#DejaVuSans-6e" transform="translate(772.021484 0)"/>
      <use xlink:href="#DejaVuSans-63" transform="translate(835.400391 0)"/>
      <use xlink:href="#DejaVuSans-74" transform="translate(890.380859 0)"/>
      <use xlink:href="#DejaVuSans-20" transform="translate(929.589844 0)"/>
      <use xlink:href="#DejaVuSans-6b" transform="translate(961.376953 0)"/>
      <use xlink:href="#DejaVuSans-2d" transform="translate(1019.287109 0)"/>
      <use xlink:href="#DejaVuSans-6d" transform="translate(1055.371094 0)"/>
      <use xlink:href="#DejaVuSans-65" transform="translate(1152.783203 0)"/>
      <use xlink:href="#DejaVuSans-72" transform="translate(1214.306641 0)"/>
      <use xlink:href="#DejaVuSans-73" transform="translate(1255.419922 0)"/>
     </g>
    </g>
   </g>
   <g id="FillBetweenPolyCollection_1"/>
   <g id="FillBetweenPolyCollection_2"/>
   <g id="line2d_16">
    <path d="M 81.179707 70.453926 
L 84.567216 100.051282 
L 87.954725 135.764356 
L 91.342235 151.455899 
L 94.729744 164.633034 
L 98.117253 173.874117 
L 101.504762 182.189264 
L 118.442308 220.200616 
L 121.829818 227.501951 
L 125.217327 234.301902 
L 128.604836 240.348927 
L 131.992345 245.92625 
L 135.379854 250.848974 
L 138.767364 254.81431 
L 142.154873 259.010035 
L 148.929891 266.490181 
L 152.317401 269.262538 
L 155.70491 272.360308 
L 159.092419 274.983051 
L 162.479928 277.451604 
L 165.867438 279.514449 
L 169.254947 282.293274 
L 172.642456 284.116929 
L 176.029965 286.423284 
L 179.417474 287.660695 
L 182.804984 290.521581 
L 189.580002 293.457591 
L 196.355021 297.168802 
L 199.74253 298.02478 
L 203.130039 299.689215 
L 206.517548 301.654174 
L 209.905057 303.329688 
L 213.292567 304.331565 
L 216.680076 306.12413 
L 220.067585 307.120906 
L 223.455094 309.985491 
L 230.230113 310.554932 
L 233.617622 313.179942 
L 237.005131 314.098758 
L 240.392641 314.504571 
L 243.78015 316.577602 
L 247.167659 316.23853 
L 250.555168 318.224349 
L 253.942677 318.11403 
L 257.330187 320.51635 
L 260.717696 321.217476 
L 264.105205 322.236226 
L 267.492714 321.167621 
L 270.880224 322.894894 
L 274.267733 324.408712 
L 277.655242 325.794928 
L 281.042751 325.231101 
L 284.43026 326.587879 
L 287.81777 327.407048 
L 291.205279 329.303711 
L 294.592788 325.779925 
L 297.980297 329.512074 
L 301.367807 329.581919 
L 304.755316 331.584137 
L 308.142825 332.120719 
L 311.530334 335.277561 
L 314.917844 336.082681 
L 318.305353 335.23359 
L 321.692862 336.426025 
L 325.080371 336.79758 
L 328.46788 336.914843 
L 331.85539 338.54218 
L 335.242899 337.849054 
L 338.630408 337.606135 
L 342.017917 340.773541 
L 345.405427 340.418985 
L 348.792936 341.329116 
L 352.180445 342.775129 
L 355.567954 341.697038 
L 358.955464 343.871123 
L 362.342973 343.654182 
L 365.730482 347.020143 
L 369.117991 345.478536 
L 372.5055 345.578379 
L 375.89301 346.083719 
L 379.280519 346.254482 
L 382.668028 348.103885 
L 386.055537 348.58864 
L 389.443047 346.460963 
L 392.830556 350.263177 
L 396.218065 349.705458 
L 399.605574 347.883311 
L 402.993083 349.237205 
L 406.380593 350.022616 
L 409.768102 348.289208 
L 413.155611 352.01586 
L 416.54312 348.58864 
L 419.93063 351.040738 
L 423.318139 354.373096 
L 426.705648 355.641518 
L 430.093157 352.896152 
L 433.480667 355.342989 
L 436.868176 356.767968 
L 440.255685 356.249589 
L 443.643194 357.512416 
L 447.030703 356.820407 
L 450.418213 358.843077 
L 453.805722 356.872958 
L 457.193231 358.503653 
L 460.58074 360.736322 
L 463.96825 361.548776 
L 467.355759 358.900103 
L 470.743268 360.491603 
L 474.130777 361.932933 
L 477.518286 359.187217 
L 480.905796 360.983482 
L 484.293305 360.430799 
L 487.680814 362.520572 
L 491.068323 362.586734 
L 494.455833 360.552556 
L 497.843342 361.868491 
L 501.230851 362.653073 
L 504.61836 362.653073 
L 508.00587 362.06232 
L 511.393379 364.514854 
L 514.780888 364.658493 
L 518.168397 366.527978 
L 521.555906 362.454586 
L 524.943416 362.653073 
L 528.330925 363.258255 
L 531.718434 361.868491 
L 535.105943 364.948293 
L 538.493453 359.653633 
L 541.880962 363.054881 
L 545.268471 361.804217 
L 548.65598 364.159358 
L 552.04349 363.190278 
L 555.430999 362.920219 
L 558.818508 365.687978 
L 562.206017 364.159358 
L 565.593526 363.463312 
L 568.981036 364.658493 
L 572.368545 364.802969 
L 575.756054 362.786286 
L 579.143563 363.670081 
L 582.531073 361.932933 
L 585.918582 360.370144 
L 589.306091 362.586734 
L 592.6936 361.107993 
L 596.081109 363.948484 
L 599.468619 362.520572 
L 602.856128 363.532043 
L 606.243637 366.219218 
L 613.018656 361.932933 
L 616.406165 363.326419 
L 619.793674 362.786286 
L 623.181183 363.054881 
L 626.568693 363.670081 
L 629.956202 361.422036 
L 633.343711 362.192386 
L 636.73122 363.394771 
L 640.118729 361.61239 
L 643.506239 360.309637 
L 646.893748 360.859594 
L 650.281257 358.616278 
L 653.668766 358.447531 
L 657.056276 359.536203 
L 660.443785 357.948077 
L 663.831294 358.113446 
L 667.218803 358.0582 
L 670.606312 360.674915 
L 673.993822 355.792143 
L 677.381331 358.95726 
L 680.76884 358.559902 
L 684.156349 356.455641 
L 687.543859 356.403967 
L 690.931368 358.843077 
L 694.318877 356.403967 
L 697.706386 356.455641 
L 701.093896 355.591513 
L 704.481405 355.293582 
L 707.868914 356.507423 
L 711.256423 353.669805 
L 714.643932 352.717574 
L 718.031442 352.67313 
L 721.418951 351.124024 
L 724.80646 351.843494 
L 728.193969 351.459997 
L 731.581479 352.496146 
L 734.968988 349.626799 
L 738.356497 351.929527 
L 741.744006 349.863529 
L 745.131515 349.006356 
L 748.519025 349.666097 
L 751.906534 348.626324 
L 755.294043 348.513442 
L 755.294043 348.513442 
" clip-path="url(#pfffe3242db)" style="fill: none; stroke: #4c72b0; stroke-width: 2; stroke-linecap: round"/>
   </g>
   <g id="line2d_17">
    <path d="M 81.179707 35.169352 
L 84.567216 88.503932 
L 87.954725 116.207843 
L 91.342235 134.731364 
L 94.729744 149.194532 
L 98.117253 161.271323 
L 101.504762 171.65442 
L 104.892271 180.61386 
L 108.279781 188.605383 
L 111.66729 195.471435 
L 115.054799 201.567995 
L 118.442308 206.51012 
L 121.829818 211.136076 
L 125.217327 214.901224 
L 128.604836 218.2734 
L 131.992345 221.310768 
L 135.379854 223.567794 
L 138.767364 225.398867 
L 142.154873 226.790382 
L 145.542382 227.631267 
L 148.929891 228.309879 
L 152.317401 228.249489 
L 155.70491 228.326615 
L 159.092419 227.723682 
L 162.479928 227.429046 
L 165.867438 226.628319 
L 169.254947 225.99554 
L 179.417474 223.667615 
L 182.804984 223.135535 
L 189.580002 221.650318 
L 196.355021 220.718884 
L 199.74253 220.537413 
L 203.130039 220.235764 
L 206.517548 220.07462 
L 209.905057 220.253993 
L 213.292567 220.258234 
L 216.680076 220.608938 
L 226.842604 222.107442 
L 230.230113 222.899186 
L 233.617622 223.862094 
L 243.78015 227.855604 
L 250.555168 231.505599 
L 253.942677 233.174373 
L 257.330187 235.226553 
L 264.105205 239.981409 
L 267.492714 242.563488 
L 274.267733 248.104849 
L 277.655242 251.521337 
L 281.042751 254.296239 
L 287.81777 260.855375 
L 291.205279 264.32888 
L 294.592788 268.071666 
L 297.980297 272.240764 
L 301.367807 276.141039 
L 311.530334 286.709841 
L 314.917844 291.232914 
L 318.305353 294.285106 
L 321.692862 298.379596 
L 325.080371 300.703958 
L 328.46788 305.32306 
L 335.242899 310.906278 
L 338.630408 312.381168 
L 342.017917 315.743466 
L 345.405427 317.365928 
L 348.792936 319.193933 
L 352.180445 320.095463 
L 355.567954 321.798129 
L 358.955464 323.095958 
L 362.342973 323.244448 
L 365.730482 325.070254 
L 369.117991 325.201779 
L 372.5055 325.975677 
L 375.89301 327.58386 
L 379.280519 325.94546 
L 386.055537 328.254229 
L 389.443047 327.957685 
L 392.830556 328.89217 
L 396.218065 331.114672 
L 399.605574 330.526452 
L 402.993083 329.338317 
L 406.380593 330.874021 
L 409.768102 329.775015 
L 413.155611 332.237228 
L 416.54312 332.848079 
L 419.93063 334.391394 
L 423.318139 334.053991 
L 426.705648 334.668957 
L 430.093157 335.699223 
L 433.480667 337.269999 
L 436.868176 337.174792 
L 440.255685 338.896152 
L 443.643194 339.229431 
L 447.030703 339.751084 
L 450.418213 340.06943 
L 453.805722 341.049772 
L 457.193231 340.52754 
L 460.58074 341.272995 
L 463.96825 343.561786 
L 467.355759 341.897435 
L 470.743268 342.099467 
L 474.130777 345.412197 
L 477.518286 344.629681 
L 480.905796 345.050474 
L 484.293305 345.84661 
L 487.680814 346.495544 
L 491.068323 347.773757 
L 494.455833 347.161932 
L 497.843342 347.412033 
L 501.230851 347.810221 
L 504.61836 348.929882 
L 508.00587 351.124024 
L 511.393379 350.792546 
L 514.780888 351.291441 
L 518.168397 350.628456 
L 521.555906 351.502316 
L 524.943416 350.833739 
L 528.330925 351.502316 
L 531.718434 353.076027 
L 535.105943 352.27668 
L 538.493453 353.348311 
L 541.880962 353.855406 
L 545.268471 352.851387 
L 548.65598 354.373096 
L 552.04349 356.715639 
L 555.430999 354.950464 
L 558.818508 355.096933 
L 562.206017 356.611312 
L 565.593526 356.249589 
L 568.981036 355.591513 
L 572.368545 357.838442 
L 575.756054 357.893199 
L 579.143563 356.352401 
L 582.531073 356.767968 
L 585.918582 358.279925 
L 589.306091 356.978395 
L 592.6936 358.391537 
L 596.081109 358.391537 
L 599.468619 358.003078 
L 602.856128 358.0582 
L 606.243637 358.672784 
L 609.631146 359.129527 
L 613.018656 359.771621 
L 616.406165 359.303 
L 619.793674 359.830827 
L 623.181183 357.783805 
L 626.568693 357.783805 
L 629.956202 362.257677 
L 633.343711 361.295941 
L 636.73122 362.586734 
L 640.118729 363.463312 
L 643.506239 364.088867 
L 646.893748 360.491603 
L 650.281257 361.932933 
L 653.668766 363.808891 
L 660.443785 364.443346 
L 663.831294 365.687978 
L 667.218803 367.558875 
L 670.606312 365.687978 
L 673.993822 366.219218 
L 677.381331 367.478035 
L 680.76884 366.450427 
L 684.156349 368.975125 
L 687.543859 366.762099 
L 690.931368 368.804244 
L 694.318877 368.132267 
L 697.706386 368.975125 
L 701.093896 367.077742 
L 704.481405 369.407555 
L 707.868914 369.147192 
L 711.256423 371.310977 
L 714.643932 372.666341 
L 718.031442 370.844341 
L 721.418951 370.66012 
L 724.80646 372.966679 
L 728.193969 370.386331 
L 731.581479 371.405368 
L 734.968988 370.386331 
L 738.356497 376.189086 
L 741.744006 375.398844 
L 745.131515 374.740993 
L 748.519025 373.168946 
L 751.906534 375.960719 
L 755.294043 374.205818 
L 755.294043 374.205818 
" clip-path="url(#pfffe3242db)" style="fill: none; stroke: #dd8452; stroke-width: 2; stroke-linecap: round"/>
   </g>
   <g id="line2d_18"/>
   <g id="line2d_19"/>
   <g id="patch_3">
    <path d="M 47.47399 393.240072 
L 47.47399 18.118365 
" style="fill: none; stroke: #cccccc; stroke-width: 1.25; stroke-linejoin: miter; stroke-linecap: square"/>
   </g>
   <g id="patch_4">
    <path d="M 788.99976 393.240072 
L 788.99976 18.118365 
" style="fill: none; stroke: #cccccc; stroke-width: 1.25; stroke-linejoin: miter; stroke-linecap: square"/>
   </g>
   <g id="patch_5">
    <path d="M 47.47399 393.240072 
L 788.99976 393.240072 
" style="fill: none; stroke: #cccccc; stroke-width: 1.25; stroke-linejoin: miter; stroke-linecap: square"/>
   </g>
   <g id="patch_6">
    <path d="M 47.47399 18.118365 
L 788.99976 18.118365 
" style="fill: none; stroke: #cccccc; stroke-width: 1.25; stroke-linejoin: miter; stroke-linecap: square"/>
   </g>
   <g id="text_18">
    <!-- k-mer spectra (Illumina k=21, ONT k=17) -->
    <g style="fill: #262626" transform="translate(293.002813 12.118365) scale(0.12 -0.12)">
     <defs>
      <path id="DejaVuSans-61" d="M 2194 1759 
Q 1497 1759 1228 1600 
Q 959 1441 959 1056 
Q 959 750 1161 570 
Q 1363 391 1709 391 
Q 2188 391 2477 730 
Q 2766 1069 2766 1631 
L 2766 1759 
L 2194 1759 
z
M 3341 1997 
L 3341 0 
L 2766 0 
L 2766 531 
Q 2569 213 2275 61 
Q 1981 -91 1556 -91 
Q 1019 -91 701 211 
Q 384 513 384 1019 
Q 384 1609 779 1909 
Q 1175 2209 1959 2209 
L 2766 2209 
L 2766 2266 
Q 2766 2663 2505 2880 
Q 2244 3097 1772 3097 
Q 1472 3097 1187 3025 
Q 903 2953 641 2809 
L 641 3341 
Q 956 3463 1253 3523 
Q 1550 3584 1831 3584 
Q 2591 3584 2966 3190 
Q 3341 2797 3341 1997 
z
" transform="scale(0.015625)"/>
      <path id="DejaVuSans-28" d="M 1984 4856 
Q 1566 4138 1362 3434 
Q 1159 2731 1159 2009 
Q 1159 1288 1364 580 
Q 1569 -128 1984 -844 
L 1484 -844 
Q 1016 -109 783 600 
Q 550 1309 550 2009 
Q 550 2706 781 3412 
Q 1013 4119 1484 4856 
L 1984 4856 
z
" transform="scale(0.015625)"/>
      <path id="DejaVuSans-49" d="M 628 4666 
L 1259 4666 
L 1259 0 
L 628 0 
L 628 4666 
z
" transform="scale(0.015625)"/>
      <path id="DejaVuSans-3d" d="M 678 2906 
L 4684 2906 
L 4684 2381 
L 678 2381 
L 678 2906 
z
M 678 1631 
L 4684 1631 
L 4684 1100 
L 678 1100 
L 678 1631 
z
" transform="scale(0.015625)"/>
      <path id="DejaVuSans-2c" d="M 750 794 
L 1409 794 
L 1409 256 
L 897 -744 
L 494 -744 
L 750 256 
L 750 794 
z
" transform="scale(0.015625)"/>
      <path id="DejaVuSans-4f" d="M 2522 4238 
Q 1834 4238 1429 3725 
Q 1025 3213 1025 2328 
Q 1025 1447 1429 934 
Q 1834 422 2522 422 
Q 3209 422 3611 934 
Q 4013 1447 4013 2328 
Q 4013 3213 3611 3725 
Q 3209 4238 2522 4238 
z
M 2522 4750 
Q 3503 4750 4090 4092 
Q 4678 3434 4678 2328 
Q 4678 1225 4090 567 
Q 3503 -91 2522 -91 
Q 1538 -91 948 565 
Q 359 1222 359 2328 
Q 359 3434 948 4092 
Q 1538 4750 2522 4750 
z
" transform="scale(0.015625)"/>
      <path id="DejaVuSans-54" d="M -19 4666 
L 3928 4666 
L 3928 4134 
L 2272 4134 
L 2272 0 
L 1638 0 
L 1638 4134 
L -19 4134 
L -19 4666 
z
" transform="scale(0.015625)"/>
      <path id="DejaVuSans-29" d="M 513 4856 
L 1013 4856 
Q 1481 4119 1714 3412 
Q 1947 2706 1947 2009 
Q 1947 1309 1714 600 
Q 1481 -109 1013 -844 
L 513 -844 
Q 928 -128 1133 580 
Q 1338 1288 1338 2009 
Q 1338 2731 1133 3434 
Q 928 4138 513 4856 
z
" transform="scale(0.015625)"/>
     </defs>
     <use xlink:href="#DejaVuSans-6b"/>
     <use xlink:href="#DejaVuSans-2d" transform="translate(57.910156 0)"/>
     <use xlink:href="#DejaVuSans-6d" transform="translate(93.994141 0)"/>
     <use xlink:href="#DejaVuSans-65" transform="translate(191.40625 0)"/>
     <use xlink:href="#DejaVuSans-72" transform="translate(252.929688 0)"/>
     <use xlink:href="#DejaVuSans-20" transform="translate(294.042969 0)"/>
     <use xlink:href="#DejaVuSans-73" transform="translate(325.830078 0)"/>
     <use xlink:href="#DejaVuSans-70" transform="translate(377.929688 0)"/>
     <use xlink:href="#DejaVuSans-65" transform="translate(441.40625 0)"/>
     <use xlink:href="#DejaVuSans-63" transform="translate(502.929688 0)"/>
     <use xlink:href="#DejaVuSans-74" transform="translate(557.910156 0)"/>
     <use xlink:href="#DejaVuSans-72" transform="translate(597.119141 0)"/>
     <use xlink:href="#DejaVuSans-61" transform="translate(638.232422 0)"/>
     <use xlink:href="#DejaVuSans-20" transform="translate(699.511719 0)"/>
     <use xlink:href="#DejaVuSans-28" transform="translate(731.298828 0)"/>
     <use xlink:href="#DejaVuSans-49" transform="translate(770.3125 0)"/>
     <use xlink:href="#DejaVuSans-6c" transform="translate(799.804688 0)"/>
     <use xlink:href="#DejaVuSans-6c" transform="translate(827.587891 0)"/>
     <use xlink:href="#DejaVuSans-75" transform="translate(855.371094 0)"/>
     <use xlink:href="#DejaVuSans-6d" transform="translate(918.75 0)"/>
     <use xlink:href="#DejaVuSans-69" transform="translate(1016.162109 0)"/>
     <use xlink:href="#DejaVuSans-6e" transform="translate(1043.945312 0)"/>
     <use xlink:href="#DejaVuSans-61" transform="translate(1107.324219 0)"/>
     <use xlink:href="#DejaVuSans-20" transform="translate(1168.603516 0)"/>
     <use xlink:href="#DejaVuSans-6b" transform="translate(1200.390625 0)"/>
     <use xlink:href="#DejaVuSans-3d" transform="translate(1258.300781 0)"/>
     <use xlink:href="#DejaVuSans-32" transform="translate(1342.089844 0)"/>
     <use xlink:href="#DejaVuSans-31" transform="translate(1405.712891 0)"/>
     <use xlink:href="#DejaVuSans-2c" transform="translate(1469.335938 0)"/>
     <use xlink:href="#DejaVuSans-20" transform="translate(1501.123047 0)"/>
     <use xlink:href="#DejaVuSans-4f" transform="translate(1532.910156 0)"/>
     <use xlink:href="#DejaVuSans-4e" transform="translate(1611.621094 0)"/>
     <use xlink:href="#DejaVuSans-54" transform="translate(1686.425781 0)"/>
     <use xlink:href="#DejaVuSans-20" transform="translate(1747.509766 0)"/>
     <use xlink:href="#DejaVuSans-6b" transform="translate(1779.296875 0)"/>
     <use xlink:href="#DejaVuSans-3d" transform="translate(1837.207031 0)"/>
     <use xlink:href="#DejaVuSans-31" transform="translate(1920.996094 0)"/>
     <use xlink:href="#DejaVuSans-37" transform="translate(1984.619141 0)"/>
     <use xlink:href="#DejaVuSans-29" transform="translate(2048.242188 0)"/>
    </g>
   </g>
   <g id="legend_1">
    <g id="patch_7">
     <path d="M 652.089291 76.32399 
L 781.29976 76.32399 
Q 783.49976 76.32399 783.49976 74.12399 
L 783.49976 25.818365 
Q 783.49976 23.618365 781.29976 23.618365 
L 652.089291 23.618365 
Q 649.889291 23.618365 649.889291 25.818365 
L 649.889291 74.12399 
Q 649.889291 76.32399 652.089291 76.32399 
z
" style="fill: #ffffff; opacity: 0.8; stroke: #cccccc; stroke-linejoin: miter"/>
    </g>
    <g id="text_19">
     <!-- platform -->
     <g style="fill: #262626" transform="translate(691.200151 37.13649) scale(0.12 -0.12)">
      <use xlink:href="#DejaVuSans-70"/>
      <use xlink:href="#DejaVuSans-6c" transform="translate(63.476562 0)"/>
      <use xlink:href="#DejaVuSans-61" transform="translate(91.259766 0)"/>
      <use xlink:href="#DejaVuSans-74" transform="translate(152.539062 0)"/>
      <use xlink:href="#DejaVuSans-66" transform="translate(191.748047 0)"/>
      <use xlink:href="#DejaVuSans-6f" transform="translate(226.953125 0)"/>
      <use xlink:href="#DejaVuSans-72" transform="translate(288.134766 0)"/>
      <use xlink:href="#DejaVuSans-6d" transform="translate(327.498047 0)"/>
     </g>
    </g>
    <g id="line2d_20">
     <path d="M 654.289291 49.640396 
L 665.289291 49.640396 
L 676.289291 49.640396 
" style="fill: none; stroke: #4c72b0; stroke-width: 2; stroke-linecap: round"/>
    </g>
    <g id="text_20">
     <!-- Illumina -->
     <g style="fill: #262626" transform="translate(685.089291 53.490396) scale(0.11 -0.11)">
      <use xlink:href="#DejaVuSans-49"/>
      <use xlink:href="#DejaVuSans-6c" transform="translate(29.492188 0)"/>
      <use xlink:href="#DejaVuSans-6c" transform="translate(57.275391 0)"/>
      <use xlink:href="#DejaVuSans-75" transform="translate(85.058594 0)"/>
      <use xlink:href="#DejaVuSans-6d" transform="translate(148.4375 0)"/>
      <use xlink:href="#DejaVuSans-69" transform="translate(245.849609 0)"/>
      <use xlink:href="#DejaVuSans-6e" transform="translate(273.632812 0)"/>
      <use xlink:href="#DejaVuSans-61" transform="translate(337.011719 0)"/>
     </g>
    </g>
    <g id="line2d_21">
     <path d="M 654.289291 65.786334 
L 665.289291 65.786334 
L 676.289291 65.786334 
" style="fill: none; stroke: #dd8452; stroke-width: 2; stroke-linecap: round"/>
    </g>
    <g id="text_21">
     <!-- Oxford Nanopore -->
     <g style="fill: #262626" transform="translate(685.089291 69.636334) scale(0.11 -0.11)">
      <defs>
       <path id="DejaVuSans-78" d="M 3513 3500 
L 2247 1797 
L 3578 0 
L 2900 0 
L 1881 1375 
L 863 0 
L 184 0 
L 1544 1831 
L 300 3500 
L 978 3500 
L 1906 2253 
L 2834 3500 
L 3513 3500 
z
" transform="scale(0.015625)"/>
      </defs>
      <use xlink:href="#DejaVuSans-4f"/>
      <use xlink:href="#DejaVuSans-78" transform="translate(78.710938 0)"/>
      <use xlink:href="#DejaVuSans-66" transform="translate(137.890625 0)"/>
      <use xlink:href="#DejaVuSans-6f" transform="translate(173.095703 0)"/>
      <use xlink:href="#DejaVuSans-72" transform="translate(234.277344 0)"/>
      <use xlink:href="#DejaVuSans-64" transform="translate(273.640625 0)"/>
      <use xlink:href="#DejaVuSans-20" transform="translate(337.117188 0)"/>
      <use xlink:href="#DejaVuSans-4e" transform="translate(368.904297 0)"/>
      <use xlink:href="#DejaVuSans-61" transform="translate(443.708984 0)"/>
      <use xlink:href="#DejaVuSans-6e" transform="translate(504.988281 0)"/>
      <use xlink:href="#DejaVuSans-6f" transform="translate(568.367188 0)"/>
      <use xlink:href="#DejaVuSans-70" transform="translate(629.548828 0)"/>
      <use xlink:href="#DejaVuSans-6f" transform="translate(693.025391 0)"/>
      <use xlink:href="#DejaVuSans-72" transform="translate(754.207031 0)"/>
      <use xlink:href="#DejaVuSans-65" transform="translate(793.070312 0)"/>
     </g>
    </g>
   </g>
  </g>
 </g>
 <defs>
  <clipPath id="pfffe3242db">
   <rect x="47.47399" y="18.118365" width="741.52577" height="375.121708"/>
  </clipPath>
 </defs>
</svg>
